<svg xmlns="http://www.w3.org/2000/svg" xmlns:xlink="http://www.w3.org/1999/xlink"
    viewBox="0 0 144 114" width="144" height="114" preserveAspectRatio="xMidYMid meet"
    style="width: 100%; height: 100%; transform: translate3d(0px, 0px, 0px); content-visibility: visible;">
    <defs>
        <clipPath id="__lottie_element_95">
            <rect width="144" height="114" x="0" y="0"></rect>
        </clipPath>
        <g id="__lottie_element_99">
            <g clip-path="url(#__lottie_element_100)"
                transform="matrix(1,0.0000017789176354199299,-0.0000017789176354199299,1,72,51.25)"
                opacity="1" style="display: block;">
                <g opacity="1" transform="matrix(1,0,0,1,-0.3869999945163727,0.5239999890327454)">
                    <path fill="rgb(0,0,0)" fill-opacity="1"
                        d=" M73.36299896240234,-59.52450180053711 C73.36299896240234,-59.52450180053711 73.36299896240234,59.52450180053711 73.36299896240234,59.52450180053711 C73.36299896240234,59.52450180053711 -73.36299896240234,59.52450180053711 -73.36299896240234,59.52450180053711 C-73.36299896240234,59.52450180053711 -73.36299896240234,-59.52450180053711 -73.36299896240234,-59.52450180053711 C-73.36299896240234,-59.52450180053711 73.36299896240234,-59.52450180053711 73.36299896240234,-59.52450180053711z"></path>
                </g>
            </g>
        </g>
        <clipPath id="__lottie_element_100">
            <path fill="#ffffff" clip-rule="nonzero"
                d=" M-101.75,-73.5 C-101.75,-73.5 -102.75,74.29900360107422 -102.75,74.29900360107422 C-102.75,74.29900360107422 85.22599792480469,73.04900360107422 85.22599792480469,73.04900360107422 C85.22599792480469,73.04900360107422 86.97599792480469,-73.25 86.97599792480469,-73.25 C86.97599792480469,-73.25 -101.75,-73.5 -101.75,-73.5"
                fill-opacity="1"></path>
        </clipPath>
        <mask id="__lottie_element_99_1" mask-type="alpha">
            <use xlink:href="#__lottie_element_99"></use>
        </mask>
    </defs>
    <g clip-path="url(#__lottie_element_95)">
        <g mask="url(#__lottie_element_99_1)" style="display: block;">
            <g transform="matrix(1,0,0,1,2.2569961547851562,11.139999389648438)" opacity="1">
                <g opacity="1" transform="matrix(1,0,0,1,70.51799774169922,49.25)">
                    <path fill="rgb(107,97,190)" fill-opacity="1"
                        d=" M-70.26799774169922,49 C-70.26799774169922,49 -69.60900115966797,4.056000232696533 -29.26799964904785,-14 C-1.0880000591278076,-26.613000869750977 16.73200035095215,-19 30.73200035095215,-18 C37.78499984741211,-17.496000289916992 56.625,-16.631000518798828 67.73200225830078,-49 C67.73200225830078,-49 71.44300079345703,-28.459999084472656 53.542999267578125,-9.366999626159668 C47.81800079345703,-3.260999917984009 29.062000274658203,3.943000078201294 13.503000259399414,7.8979997634887695 C-3.322000026702881,12.173999786376953 -14.86400032043457,28.07900047302246 -12.927000045776367,45.33000183105469 C-12.829999923706055,46.183998107910156 -12.704000473022461,47.00699996948242 -12.541999816894531,47.79199981689453 C-12.458999633789062,48.196998596191406 -12.368000030517578,48.599998474121094 -12.267999649047852,49 C-12.267999649047852,49 -70.26799774169922,49 -70.26799774169922,49z"></path>
                </g>
                <g opacity="1" transform="matrix(1,0,0,1,28.270000457763672,89.94499969482422)">
                    <path fill="rgb(0,0,0)" fill-opacity="1"
                        d=" M3.0199999809265137,-7.565000057220459 C1.6200000047683716,-2.3949999809265137 0.9700000286102295,2.944999933242798 1.0800000429153442,8.305000305175781 C1.0800000429153442,8.305000305175781 -3.0199999809265137,8.305000305175781 -3.0199999809265137,8.305000305175781 C-3.0199999809265137,8.305000305175781 -2.309999942779541,2.444999933242798 -2.309999942779541,2.444999933242798 C-1.8700000047683716,-1.184999942779541 -1.1699999570846558,-4.784999847412109 -0.1899999976158142,-8.305000305175781 C-0.1899999976158142,-8.305000305175781 3.0199999809265137,-7.565000057220459 3.0199999809265137,-7.565000057220459z"></path>
                </g>
                <g opacity="1" transform="matrix(1,0,0,1,37.244998931884766,64.4749984741211)">
                    <path fill="rgb(0,0,0)" fill-opacity="1"
                        d=" M3.174999952316284,-6.755000114440918 C3.174999952316284,-6.755000114440918 4.855000019073486,-5.484000205993652 4.855000019073486,-5.484000205993652 C1.9450000524520874,-1.875 -0.2750000059604645,2.135999917984009 -2.184999942779541,6.75600004196167 C-2.184999942779541,6.75600004196167 -4.855000019073486,5.716000080108643 -4.855000019073486,5.716000080108643 C-4.074999809265137,4.105000019073486 -3.2249999046325684,2.5350000858306885 -2.305000066757202,0.9950000047683716 C-0.675000011920929,-1.7549999952316284 1.1349999904632568,-4.335000038146973 3.174999952316284,-6.755000114440918z"></path>
                </g>
                <g opacity="1" transform="matrix(1,0,0,1,55.084999084472656,46.76499938964844)">
                    <path fill="rgb(0,0,0)" fill-opacity="1"
                        d=" M4.034999847412109,-3.684999942779541 C4.034999847412109,-3.684999942779541 5.164999961853027,-1.774999976158142 5.164999961853027,-1.774999976158142 C1.7350000143051147,-0.004999999888241291 -1.2450000047683716,1.8049999475479126 -3.865000009536743,3.684999942779541 C-3.865000009536743,3.684999942779541 -5.164999961853027,1.9850000143051147 -5.164999961853027,1.9850000143051147 C-2.4049999713897705,-0.06499999761581421 0.6449999809265137,-1.9550000429153442 4.034999847412109,-3.684999942779541z"></path>
                </g>
                <g opacity="1" transform="matrix(1,0,0,1,132.81500244140625,18.635000228881836)">
                    <path fill="rgb(0,0,0)" fill-opacity="1"
                        d=" M1.4259999990463257,-2.625 C1.305999994277954,-2.265000104904175 0.5740000009536743,-0.1550000011920929 -0.8550000190734863,2.625 C-0.8550000190734863,2.625 -1.4259999990463257,2.3450000286102295 -1.4259999990463257,2.3450000286102295 C0.3149999976158142,-0.2849999964237213 1.2660000324249268,-2.2950000762939453 1.4259999990463257,-2.625z"></path>
                </g>
                <g opacity="1" transform="matrix(1,0,0,1,127.05500030517578,27.344999313354492)">
                    <path fill="rgb(0,0,0)" fill-opacity="1"
                        d=" M2.005000114440918,-3.1449999809265137 C2.005000114440918,-3.1449999809265137 2.8239998817443848,-2.484999895095825 2.8239998817443848,-2.484999895095825 C1.6349999904632568,-0.6150000095367432 0.1850000023841858,1.3350000381469727 -1.555999994277954,3.1449999809265137 C-1.555999994277954,3.1449999809265137 -2.825000047683716,1.975000023841858 -2.825000047683716,1.975000023841858 C-0.9559999704360962,0.32499998807907104 0.6549999713897705,-1.4450000524520874 2.005000114440918,-3.1449999809265137z"></path>
                </g>
                <g opacity="1" transform="matrix(1,0,0,1,115.61000061035156,35.540000915527344)">
                    <path fill="rgb(0,0,0)" fill-opacity="1"
                        d=" M2.7300000190734863,-2.130000114440918 C2.7300000190734863,-2.130000114440918 4.199999809265137,-0.47999998927116394 4.199999809265137,-0.47999998927116394 C2.121000051498413,0.7300000190734863 -0.20000000298023224,1.649999976158142 -2.7899999618530273,2.0999999046325684 C-2.8499999046325684,2.109999895095825 -2.9100000858306885,2.119999885559082 -2.9700000286102295,2.130000114440918 C-2.9700000286102295,2.130000114440918 -4.199999809265137,0.30000001192092896 -4.199999809265137,0.30000001192092896 C-1.6799999475479126,-0.1599999964237213 0.6299999952316284,-1.0199999809265137 2.7300000190734863,-2.130000114440918z"></path>
                </g>
                <g opacity="1" transform="matrix(1,0,0,1,95.9800033569336,37.36000061035156)">
                    <path fill="rgb(0,0,0)" fill-opacity="1"
                        d=" M4.761000156402588,-0.6899999976158142 C4.761000156402588,-0.6899999976158142 5.301000118255615,1.0299999713897705 5.301000118255615,1.0299999713897705 C1.8209999799728394,0.949999988079071 -1.559000015258789,0.6800000071525574 -5.0289998054504395,0.5699999928474426 C-5.0289998054504395,0.5699999928474426 -5.301000118255615,-1.0299999713897705 -5.301000118255615,-1.0299999713897705 C-1.940000057220459,-0.9200000166893005 1.3609999418258667,-0.7099999785423279 4.761000156402588,-0.6899999976158142z"></path>
                </g>
                <g opacity="1" transform="matrix(1,0,0,1,74.58999633789062,38.75)">
                    <path fill="rgb(0,0,0)" fill-opacity="1"
                        d=" M5.130000114440918,-2.140000104904175 C5.130000114440918,-2.140000104904175 5.78000020980835,-0.4300000071525574 5.78000020980835,-0.4300000071525574 C2.450000047683716,-0.009999999776482582 -1.0989999771118164,0.7699999809265137 -5,2.140000104904175 C-5,2.140000104904175 -5.78000020980835,0.25 -5.78000020980835,0.25 C-1.8489999771118164,-1.0399999618530273 1.7400000095367432,-1.7599999904632568 5.130000114440918,-2.140000104904175z"></path>
                </g>
            </g>
        </g>
        <g
            transform="matrix(0.9905094504356384,-0.13744454085826874,0.13744454085826874,0.9905094504356384,4.524792671203613,26.824665069580078)"
            opacity="1" style="display: block;">
            <g opacity="1" transform="matrix(1,0,0,1,8.522000312805176,14.75)">
                <path fill="rgb(107,97,190)" fill-opacity="1"
                    d=" M8.27299976348877,0 C8.27299976348877,8.008000373840332 4.567999839782715,14.5 -0.0010000000474974513,14.5 C-4.570000171661377,14.5 -8.27299976348877,8.008000373840332 -8.27299976348877,0 C-8.27299976348877,-8.008000373840332 -4.570000171661377,-14.5 -0.0010000000474974513,-14.5 C4.567999839782715,-14.5 8.27299976348877,-8.008000373840332 8.27299976348877,0z"></path>
            </g>
        </g>
        <g transform="matrix(1,0,0,1,15.528999328613281,53.13999938964844)" opacity="1"
            style="display: block;">
            <g opacity="1" transform="matrix(1,0,0,1,1.25,4.25)">
                <path fill="rgb(107,97,190)" fill-opacity="1"
                    d=" M1,4 C1,4 -1,4 -1,4 C-1,4 -1,-4 -1,-4 C-1,-4 1,-4 1,-4 C1,-4 1,4 1,4z"></path>
            </g>
        </g>
        <g
            transform="matrix(1.0506398677825928,0.027511972934007645,-0.027511972934007645,1.0506398677825928,70.1003646850586,5.022165298461914)"
            opacity="1" style="display: block;">
            <g opacity="1" transform="matrix(1,0,0,1,7.064000129699707,12.192999839782715)">
                <path fill="rgb(107,97,190)" fill-opacity="1"
                    d=" M6.814000129699707,-0.0010000000474974513 C6.814000129699707,6.5960001945495605 3.763000011444092,11.942999839782715 0.0010000000474974513,11.942999839782715 C-3.763000011444092,11.942999839782715 -6.814000129699707,6.5960001945495605 -6.814000129699707,-0.0010000000474974513 C-6.814000129699707,-6.5970001220703125 -3.763000011444092,-11.942999839782715 0.0010000000474974513,-11.942999839782715 C3.763000011444092,-11.942999839782715 6.814000129699707,-6.5970001220703125 6.814000129699707,-0.0010000000474974513z"></path>
            </g>
        </g>
        <g transform="matrix(1,0,0,1,75.63500213623047,29.027000427246094)" opacity="1"
            style="display: block;">
            <g opacity="1" transform="matrix(1,0,0,1,1.25,4.25)">
                <path fill="rgb(107,97,190)" fill-opacity="1"
                    d=" M1,4 C1,4 -1,4 -1,4 C-1,4 -1,-4 -1,-4 C-1,-4 1,-4 1,-4 C1,-4 1,4 1,4z"></path>
            </g>
        </g>
        <g
            transform="matrix(0.996382474899292,-0.08498217910528183,0.08498217910528183,0.996382474899292,84.5774154663086,2.087451934814453)"
            opacity="1" style="display: block;">
            <g opacity="1" transform="matrix(1,0,0,1,9.489999771118164,15.123000144958496)">
                <path fill="rgb(107,97,190)" fill-opacity="1"
                    d=" M9.241000175476074,0 C9.241000175476074,8.21399974822998 5.104000091552734,14.873000144958496 0.0010000000474974513,14.873000144958496 C-5.103000164031982,14.873000144958496 -9.241000175476074,8.21399974822998 -9.241000175476074,0 C-9.241000175476074,-8.21399974822998 -5.103000164031982,-14.873000144958496 0.0010000000474974513,-14.873000144958496 C5.104000091552734,-14.873000144958496 9.241000175476074,-8.21399974822998 9.241000175476074,0z"></path>
            </g>
        </g>
        <g transform="matrix(1,0,0,1,94.84400177001953,29.027000427246094)" opacity="1"
            style="display: block;">
            <g opacity="1" transform="matrix(1,0,0,1,1.25,4.25)">
                <path fill="rgb(107,97,190)" fill-opacity="1"
                    d=" M1,4 C1,4 -1,4 -1,4 C-1,4 -1,-4 -1,-4 C-1,-4 1,-4 1,-4 C1,-4 1,4 1,4z"></path>
            </g>
        </g>
        <g
            transform="matrix(1.0433403253555298,0.11807167530059814,-0.11807167530059814,1.0433403253555298,120.67660522460938,8.458366394042969)"
            opacity="1" style="display: block;">
            <g opacity="1" transform="matrix(1,0,0,1,5.251999855041504,9.017000198364258)">
                <path fill="rgb(107,97,190)" fill-opacity="1"
                    d=" M5.001999855041504,0 C5.001999855041504,4.8420000076293945 2.76200008392334,8.767000198364258 0,8.767000198364258 C-2.763000011444092,8.767000198364258 -5.001999855041504,4.8420000076293945 -5.001999855041504,0 C-5.001999855041504,-4.8420000076293945 -2.763000011444092,-8.767000198364258 0,-8.767000198364258 C2.76200008392334,-8.767000198364258 5.001999855041504,-4.8420000076293945 5.001999855041504,0z"></path>
            </g>
        </g>
        <g transform="matrix(1,0,0,1,123.14700317382812,25.527000427246094)" opacity="1"
            style="display: block;">
            <g opacity="1" transform="matrix(1,0,0,1,1.25,4.25)">
                <path fill="rgb(107,97,190)" fill-opacity="1"
                    d=" M1,4 C1,4 -1,4 -1,4 C-1,4 -1,-4 -1,-4 C-1,-4 1,-4 1,-4 C1,-4 1,4 1,4z"></path>
            </g>
        </g>
        <g transform="matrix(1,0,0,1,116.14299774169922,98.19999694824219)" opacity="1"
            style="display: block;">
            <g opacity="1" transform="matrix(1,0,0,1,2.385999917984009,5.328000068664551)">
                <path fill="rgb(107,97,190)" fill-opacity="1"
                    d=" M2.134999990463257,5.078999996185303 C2.134999990463257,5.078999996185303 -2.134999990463257,5.078999996185303 -2.134999990463257,5.078999996185303 C-2.134999990463257,5.078999996185303 -2.134999990463257,-5.078999996185303 -2.134999990463257,-5.078999996185303 C-2.134999990463257,-5.078999996185303 2.134999990463257,-5.078999996185303 2.134999990463257,-5.078999996185303 C2.134999990463257,-5.078999996185303 2.134999990463257,5.078999996185303 2.134999990463257,5.078999996185303z"></path>
            </g>
        </g>
        <g
            transform="matrix(0.9375511407852173,0.15328986942768097,-0.15328986942768097,0.9375511407852173,113.25602722167969,62.441612243652344)"
            opacity="1" style="display: block;">
            <g opacity="1" transform="matrix(1,0,0,1,11.982999801635742,19.135000228881836)">
                <path fill="rgb(107,97,190)" fill-opacity="1"
                    d=" M11.734000205993652,-0.0010000000474974513 C11.734000205993652,10.428999900817871 6.480000019073486,18.885000228881836 0.0010000000474974513,18.885000228881836 C-6.480000019073486,18.885000228881836 -11.734000205993652,10.428999900817871 -11.734000205993652,-0.0010000000474974513 C-11.734000205993652,-10.430999755859375 -6.480000019073486,-18.885000228881836 0.0010000000474974513,-18.885000228881836 C6.480000019073486,-18.885000228881836 11.734000205993652,-10.430999755859375 11.734000205993652,-0.0010000000474974513z"></path>
            </g>
        </g>
    </g>
</svg>