<svg xmlns="http://www.w3.org/2000/svg" xmlns:xlink="http://www.w3.org/1999/xlink"
    viewBox="0 0 1000 1000" width="1000" height="1000" preserveAspectRatio="xMidYMid meet"
    style="width: 100%; height: 100%; transform: translate3d(0px, 0px, 0px); content-visibility: visible;">
    <defs>
        <clipPath id="__lottie_element_191">
            <rect width="1000" height="1000" x="0" y="0"></rect>
        </clipPath>
        <linearGradient id="__lottie_element_195" spreadMethod="pad" gradientUnits="userSpaceOnUse"
            x1="-339.9750061035156" y1="-332.9989929199219" x2="323.1830139160156"
            y2="369.10699462890625">
            <stop offset="0%" stop-color="rgb(255,219,237)"></stop>
            <stop offset="50%" stop-color="rgb(233,221,246)"></stop>
            <stop offset="100%" stop-color="rgb(211,222,255)"></stop>
        </linearGradient>
    </defs>
    <g clip-path="url(#__lottie_element_191)">
        <g transform="matrix(1,0,0,1,499.9750061035156,499.9989929199219)" opacity="1"
            style="display: block;">
            <g opacity="1" transform="matrix(1,0,0,1,0,0)">
                <path fill="url(#__lottie_element_195)" fill-opacity="1"
                    d=" M44.018001556396484,-361.3389892578125 C-91.73999786376953,-321.4110107421875 -64.50800323486328,-226.67999267578125 -79.69000244140625,-121.71299743652344 C-98.64199829101562,9.295000076293945 -180.5500030517578,-57.88100051879883 -274.6510009765625,12.869000434875488 C-437.31298828125,135.16900634765625 -319.1499938964844,405.1449890136719 -117.14399719238281,364.1440124511719 C-9.876999855041504,342.3760070800781 12.041999816894531,263.2919921875 55.79199981689453,178.79100036621094 C112.38600158691406,69.47899627685547 206.23899841308594,99.28099822998047 290.4179992675781,27.91699981689453 C461.14300537109375,-116.7979965209961 236.60400390625,-417.968994140625 44.018001556396484,-361.3389892578125 C44.018001556396484,-361.3389892578125 44.018001556396484,-361.3389892578125 44.018001556396484,-361.3389892578125z"></path>
            </g>
        </g>
        <g transform="matrix(1,0,0,1,0,6.235076904296875)" opacity="1" style="display: block;">
            <g opacity="1" transform="matrix(1,0,0,1,290.6109924316406,687.031982421875)">
                <g opacity="1" transform="matrix(1,0,0,1,0,0)">
                    <path stroke-linecap="round" stroke-linejoin="round" fill-opacity="0"
                        stroke="rgb(159,176,254)" stroke-opacity="1" stroke-width="7" d="M0 0"></path>
                </g>
            </g>
            <g opacity="1" transform="matrix(1,0,0,1,253.2050018310547,600.7360229492188)">
                <g opacity="1" transform="matrix(1,0,0,1,0,0)">
                    <path stroke-linecap="round" stroke-linejoin="round" fill-opacity="0"
                        stroke="rgb(159,176,254)" stroke-opacity="1" stroke-width="7" d="M0 0"></path>
                </g>
            </g>
            <g opacity="1" transform="matrix(1,0,0,1,231.79800415039062,564.8419799804688)">
                <g opacity="1" transform="matrix(1,0,0,1,0,0)">
                    <path stroke-linecap="round" stroke-linejoin="round" fill-opacity="0"
                        stroke="rgb(159,176,254)" stroke-opacity="1" stroke-width="7" d="M0 0"></path>
                </g>
            </g>
            <g opacity="1" transform="matrix(1,0,0,1,311.70098876953125,711.239013671875)">
                <g opacity="1" transform="matrix(1,0,0,1,0,0)">
                    <path stroke-linecap="round" stroke-linejoin="round" fill-opacity="0"
                        stroke="rgb(159,176,254)" stroke-opacity="1" stroke-width="7" d="M0 0"></path>
                </g>
            </g>
            <g opacity="1" transform="matrix(1,0,0,1,414.760009765625,761.8179931640625)">
                <g opacity="1" transform="matrix(1,0,0,1,0,0)">
                    <path stroke-linecap="round" stroke-linejoin="round" fill-opacity="0"
                        stroke="rgb(159,176,254)" stroke-opacity="1" stroke-width="7" d="M0 0"></path>
                </g>
            </g>
            <g opacity="1" transform="matrix(1,0,0,1,448.5719909667969,786.4450073242188)">
                <g opacity="1" transform="matrix(1,0,0,1,0,0)">
                    <path stroke-linecap="round" stroke-linejoin="round" fill-opacity="0"
                        stroke="rgb(159,176,254)" stroke-opacity="1" stroke-width="7" d="M0 0"></path>
                </g>
            </g>
        </g>
        <g transform="matrix(1,0,0,1,0,6.235076904296875)" opacity="1" style="display: block;">
            <g opacity="1" transform="matrix(1,0,0,1,290.6109924316406,687.031982421875)">
                <g opacity="1" transform="matrix(1,0,0,1,0,0)">
                    <path stroke-linecap="round" stroke-linejoin="round" fill-opacity="0"
                        stroke="rgb(159,176,254)" stroke-opacity="1" stroke-width="7" d="M0 0"></path>
                </g>
            </g>
            <g opacity="1" transform="matrix(1,0,0,1,253.2050018310547,600.7360229492188)">
                <g opacity="1" transform="matrix(1,0,0,1,0,0)">
                    <path stroke-linecap="round" stroke-linejoin="round" fill-opacity="0"
                        stroke="rgb(159,176,254)" stroke-opacity="1" stroke-width="7" d="M0 0"></path>
                </g>
            </g>
            <g opacity="1" transform="matrix(1,0,0,1,231.79800415039062,564.8419799804688)">
                <g opacity="1" transform="matrix(1,0,0,1,0,0)">
                    <path stroke-linecap="round" stroke-linejoin="round" fill-opacity="0"
                        stroke="rgb(159,176,254)" stroke-opacity="1" stroke-width="7" d="M0 0"></path>
                </g>
            </g>
            <g opacity="1" transform="matrix(1,0,0,1,311.70098876953125,711.239013671875)">
                <g opacity="1" transform="matrix(1,0,0,1,0,0)">
                    <path stroke-linecap="round" stroke-linejoin="round" fill-opacity="0"
                        stroke="rgb(159,176,254)" stroke-opacity="1" stroke-width="7" d="M0 0"></path>
                </g>
            </g>
            <g opacity="1" transform="matrix(1,0,0,1,414.760009765625,761.8179931640625)">
                <g opacity="1" transform="matrix(1,0,0,1,0,0)">
                    <path stroke-linecap="round" stroke-linejoin="round" fill-opacity="0"
                        stroke="rgb(159,176,254)" stroke-opacity="1" stroke-width="7" d="M0 0"></path>
                </g>
            </g>
            <g opacity="1" transform="matrix(1,0,0,1,448.5719909667969,786.4450073242188)">
                <g opacity="1" transform="matrix(1,0,0,1,0,0)">
                    <path stroke-linecap="round" stroke-linejoin="round" fill-opacity="0"
                        stroke="rgb(159,176,254)" stroke-opacity="1" stroke-width="7" d="M0 0"></path>
                </g>
            </g>
        </g>
        <g transform="matrix(1,0,0,1,0,6.235076904296875)" opacity="1" style="display: block;">
            <g opacity="1" transform="matrix(1,0,0,1,290.6109924316406,687.031982421875)">
                <g opacity="1" transform="matrix(1,0,0,1,0,0)">
                    <path stroke-linecap="round" stroke-linejoin="round" fill-opacity="0"
                        stroke="rgb(159,176,254)" stroke-opacity="1" stroke-width="7" d="M0 0"></path>
                </g>
            </g>
            <g opacity="1" transform="matrix(1,0,0,1,253.2050018310547,600.7360229492188)">
                <g opacity="1" transform="matrix(1,0,0,1,0,0)">
                    <path stroke-linecap="round" stroke-linejoin="round" fill-opacity="0"
                        stroke="rgb(159,176,254)" stroke-opacity="1" stroke-width="7"
                        d=" M115.18099975585938,-130.44200134277344 C110.06700134277344,-124.84700012207031 96.16200256347656,-109.63300323486328 77.8219985961914,-89.56600189208984"></path>
                </g>
            </g>
            <g opacity="1" transform="matrix(1,0,0,1,231.79800415039062,564.8419799804688)">
                <g opacity="1" transform="matrix(1,0,0,1,0,0)">
                    <path stroke-linecap="round" stroke-linejoin="round" fill-opacity="0"
                        stroke="rgb(159,176,254)" stroke-opacity="1" stroke-width="7"
                        d=" M-33.37200164794922,37.1349983215332 C-35.90999984741211,39.99599838256836 -37.3120002746582,41.577999114990234 -37.3120002746582,41.577999114990234"></path>
                </g>
            </g>
            <g opacity="1" transform="matrix(1,0,0,1,311.70098876953125,711.239013671875)">
                <g opacity="1" transform="matrix(1,0,0,1,0,0)">
                    <path stroke-linecap="round" stroke-linejoin="round" fill-opacity="0"
                        stroke="rgb(159,176,254)" stroke-opacity="1" stroke-width="7"
                        d=" M114.85099792480469,-130.10899353027344 C108.947998046875,-123.71499633789062 92.89800262451172,-106.3290023803711 71.72699737548828,-83.39600372314453"></path>
                </g>
            </g>
            <g opacity="1" transform="matrix(1,0,0,1,414.760009765625,761.8179931640625)">
                <g opacity="1" transform="matrix(1,0,0,1,0,0)">
                    <path stroke-linecap="round" stroke-linejoin="round" fill-opacity="0"
                        stroke="rgb(159,176,254)" stroke-opacity="1" stroke-width="7"
                        d=" M116.44300079345703,-133.4510040283203 C116.44300079345703,-133.4510040283203 112.97000122070312,-129.58999633789062 106.93800354003906,-122.88300323486328"></path>
                </g>
            </g>
            <g opacity="1" transform="matrix(1,0,0,1,448.5719909667969,786.4450073242188)">
                <g opacity="1" transform="matrix(1,0,0,1,0,0)">
                    <path stroke-linecap="round" stroke-linejoin="round" fill-opacity="0"
                        stroke="rgb(159,176,254)" stroke-opacity="1" stroke-width="7"
                        d=" M44.112998962402344,-48.37900161743164 C20.42799949645996,-20.520999908447266 -3.309000015258789,7.3979997634887695 -17.038999557495117,23.54599952697754"></path>
                </g>
            </g>
        </g>
        <g transform="matrix(1,0,0,1,0,-22.119903564453125)" opacity="1" style="display: block;">
            <g opacity="1" transform="matrix(1,0,0,1,589.4970092773438,468.52301025390625)">
                <path fill="rgb(67,105,253)" fill-opacity="1"
                    d=" M189.09414672851562,-192.5961151123047 C189.09414672851562,-192.5961151123047 -179.39747619628906,-17.717641830444336 -179.39747619628906,-17.717641830444336 C-179.39747619628906,-17.717641830444336 -189.49110412597656,25.960491180419922 -189.49110412597656,25.960491180419922 C-189.49110412597656,25.960491180419922 -166.52627563476562,193.71372985839844 -166.52627563476562,193.71372985839844 C-166.52627563476562,193.71372985839844 189.09414672851562,-192.5961151123047 189.09414672851562,-192.5961151123047z"></path>
            </g>
            <g opacity="1" transform="matrix(1,0,0,1,459.4989929199219,606.7550048828125)">
                <path fill="rgb(101,131,254)" fill-opacity="1"
                    d=" M-3.3495094776153564,-60.053592681884766 C-3.3495094776153564,-60.053592681884766 -36.52827453613281,55.481727600097656 -36.52827453613281,55.481727600097656 C-36.52827453613281,55.481727600097656 33.173179626464844,-19.494709014892578 33.173179626464844,-19.494709014892578 C33.173179626464844,-19.494709014892578 -3.3495094776153564,-60.053592681884766 -3.3495094776153564,-60.053592681884766z"></path>
            </g>
            <g opacity="1" transform="matrix(1,0,0,1,617.8909912109375,484.5780029296875)">
                <path fill="rgb(255,126,184)" fill-opacity="1"
                    d=" M160.7010955810547,-208.65911865234375 C160.7010955810547,-208.65911865234375 -34.99095916748047,206.11898803710938 -34.99095916748047,206.11898803710938 C-34.99095916748047,206.11898803710938 -161.74911499023438,62.12340545654297 -161.74911499023438,62.12340545654297 C-161.74911499023438,62.12340545654297 160.7010955810547,-208.65911865234375 160.7010955810547,-208.65911865234375z"></path>
            </g>
            <g opacity="1" transform="matrix(1,0,0,1,518.156005859375,384.09698486328125)">
                <path fill="rgb(255,126,184)" fill-opacity="1"
                    d=" M-118.15010070800781,109.427490234375 C-118.15010070800781,109.427490234375 260.4361572265625,-108.16911315917969 260.4361572265625,-108.16911315917969 C260.4361572265625,-108.16911315917969 -259.10601806640625,16.83306884765625 -259.10601806640625,16.83306884765625 C-259.10601806640625,16.83306884765625 -118.15010070800781,109.427490234375 -118.15010070800781,109.427490234375z"></path>
            </g>
        </g>
        <g transform="matrix(1,0,0,1,0,-41.080535888671875)" opacity="1" style="display: block;">
            <g opacity="1" transform="matrix(1,0,0,1,401.7669982910156,296.9010009765625)">
                <path fill="rgb(2,255,179)" fill-opacity="1"
                    d=" M79.03900146484375,90.36900329589844 C79.03900146484375,90.36900329589844 0.0010000000474974513,90.36900329589844 0.0010000000474974513,90.36900329589844 C-49.909000396728516,90.36900329589844 -90.36900329589844,49.909000396728516 -90.36900329589844,0.0010000000474974513 C-90.36900329589844,-49.909000396728516 -49.909000396728516,-90.36900329589844 0.0010000000474974513,-90.36900329589844 C49.909000396728516,-90.36900329589844 90.36900329589844,-49.909000396728516 90.36900329589844,0.0010000000474974513 C90.36900329589844,0.0010000000474974513 90.36900329589844,79.03900146484375 90.36900329589844,79.03900146484375 C90.36900329589844,85.2969970703125 85.2969970703125,90.36900329589844 79.03900146484375,90.36900329589844 C79.03900146484375,90.36900329589844 79.03900146484375,90.36900329589844 79.03900146484375,90.36900329589844z M79.03900146484375,90.36900329589844"></path>
            </g>
            <g opacity="1" transform="matrix(1,0,0,1,443.1059875488281,296.8979187011719)">
                <path fill="rgb(255,255,255)" fill-opacity="1"
                    d=" M13.425000190734863,-0.004000000189989805 C13.425000190734863,7.414999961853027 7.416999816894531,13.425000190734863 -0.004000000189989805,13.425000190734863 C-7.414999961853027,13.425000190734863 -13.425000190734863,7.414999961853027 -13.425000190734863,-0.004000000189989805 C-13.425000190734863,-7.414999961853027 -7.414999961853027,-13.425000190734863 -0.004000000189989805,-13.425000190734863 C7.416999816894531,-13.425000190734863 13.425000190734863,-7.414999961853027 13.425000190734863,-0.004000000189989805 C13.425000190734863,-0.004000000189989805 13.425000190734863,-0.004000000189989805 13.425000190734863,-0.004000000189989805z M13.425000190734863,-0.004000000189989805"></path>
            </g>
            <g opacity="1" transform="matrix(1,0,0,1,401.7640075683594,296.89801025390625)">
                <path fill="rgb(255,255,255)" fill-opacity="1"
                    d=" M13.425000190734863,-0.004000000189989805 C13.425000190734863,7.414999961853027 7.414999961853027,13.425000190734863 0.004000000189989805,13.425000190734863 C-7.408999919891357,13.425000190734863 -13.425000190734863,7.414999961853027 -13.425000190734863,-0.004000000189989805 C-13.425000190734863,-7.414999961853027 -7.408999919891357,-13.425000190734863 0.004000000189989805,-13.425000190734863 C7.414999961853027,-13.425000190734863 13.425000190734863,-7.414999961853027 13.425000190734863,-0.004000000189989805 C13.425000190734863,-0.004000000189989805 13.425000190734863,-0.004000000189989805 13.425000190734863,-0.004000000189989805z M13.425000190734863,-0.004000000189989805"></path>
            </g>
            <g opacity="1" transform="matrix(1,0,0,1,360.4280090332031,296.89801025390625)">
                <path fill="rgb(255,255,255)" fill-opacity="1"
                    d=" M13.425000190734863,-0.004000000189989805 C13.425000190734863,7.414999961853027 7.414999961853027,13.425000190734863 -0.004000000189989805,13.425000190734863 C-7.414999961853027,13.425000190734863 -13.425000190734863,7.414999961853027 -13.425000190734863,-0.004000000189989805 C-13.425000190734863,-7.414999961853027 -7.414999961853027,-13.425000190734863 -0.004000000189989805,-13.425000190734863 C7.414999961853027,-13.425000190734863 13.425000190734863,-7.414999961853027 13.425000190734863,-0.004000000189989805 C13.425000190734863,-0.004000000189989805 13.425000190734863,-0.004000000189989805 13.425000190734863,-0.004000000189989805z M13.425000190734863,-0.004000000189989805"></path>
            </g>
        </g>
        <g transform="matrix(0,0,0,0,747.6420288085938,652.9299926757812)" opacity="1"
            style="display: block;">
            <g opacity="1" transform="matrix(1,0,0,1,0,0)">
                <path fill="rgb(101,131,254)" fill-opacity="1"
                    d=" M0,-43.084999084472656 C0,-43.084999084472656 11.236000061035156,-11.236000061035156 11.236000061035156,-11.236000061035156 C11.236000061035156,-11.236000061035156 43.084999084472656,0 43.084999084472656,0 C43.084999084472656,0 11.236000061035156,11.236000061035156 11.236000061035156,11.236000061035156 C11.236000061035156,11.236000061035156 0,43.084999084472656 0,43.084999084472656 C0,43.084999084472656 -11.236000061035156,11.236000061035156 -11.236000061035156,11.236000061035156 C-11.236000061035156,11.236000061035156 -43.084999084472656,0 -43.084999084472656,0 C-43.084999084472656,0 -11.236000061035156,-11.236000061035156 -11.236000061035156,-11.236000061035156 C-11.236000061035156,-11.236000061035156 0,-43.084999084472656 0,-43.084999084472656z"></path>
                <path stroke-linecap="round" stroke-linejoin="round" fill-opacity="0"
                    stroke="rgb(101,131,254)" stroke-opacity="1" stroke-width="15"
                    d=" M0,-43.084999084472656 C0,-43.084999084472656 11.236000061035156,-11.236000061035156 11.236000061035156,-11.236000061035156 C11.236000061035156,-11.236000061035156 43.084999084472656,0 43.084999084472656,0 C43.084999084472656,0 11.236000061035156,11.236000061035156 11.236000061035156,11.236000061035156 C11.236000061035156,11.236000061035156 0,43.084999084472656 0,43.084999084472656 C0,43.084999084472656 -11.236000061035156,11.236000061035156 -11.236000061035156,11.236000061035156 C-11.236000061035156,11.236000061035156 -43.084999084472656,0 -43.084999084472656,0 C-43.084999084472656,0 -11.236000061035156,-11.236000061035156 -11.236000061035156,-11.236000061035156 C-11.236000061035156,-11.236000061035156 0,-43.084999084472656 0,-43.084999084472656z"></path>
            </g>
        </g>
        <g transform="matrix(0,0,0,0,681.1420288085938,714.9299926757812)" opacity="1"
            style="display: block;">
            <g opacity="1" transform="matrix(1,0,0,1,0,0)">
                <path fill="rgb(101,131,254)" fill-opacity="1"
                    d=" M0,-43.084999084472656 C0,-43.084999084472656 11.236000061035156,-11.236000061035156 11.236000061035156,-11.236000061035156 C11.236000061035156,-11.236000061035156 43.084999084472656,0 43.084999084472656,0 C43.084999084472656,0 11.236000061035156,11.236000061035156 11.236000061035156,11.236000061035156 C11.236000061035156,11.236000061035156 0,43.084999084472656 0,43.084999084472656 C0,43.084999084472656 -11.236000061035156,11.236000061035156 -11.236000061035156,11.236000061035156 C-11.236000061035156,11.236000061035156 -43.084999084472656,0 -43.084999084472656,0 C-43.084999084472656,0 -11.236000061035156,-11.236000061035156 -11.236000061035156,-11.236000061035156 C-11.236000061035156,-11.236000061035156 0,-43.084999084472656 0,-43.084999084472656z"></path>
                <path stroke-linecap="round" stroke-linejoin="round" fill-opacity="0"
                    stroke="rgb(101,131,254)" stroke-opacity="1" stroke-width="15"
                    d=" M0,-43.084999084472656 C0,-43.084999084472656 11.236000061035156,-11.236000061035156 11.236000061035156,-11.236000061035156 C11.236000061035156,-11.236000061035156 43.084999084472656,0 43.084999084472656,0 C43.084999084472656,0 11.236000061035156,11.236000061035156 11.236000061035156,11.236000061035156 C11.236000061035156,11.236000061035156 0,43.084999084472656 0,43.084999084472656 C0,43.084999084472656 -11.236000061035156,11.236000061035156 -11.236000061035156,11.236000061035156 C-11.236000061035156,11.236000061035156 -43.084999084472656,0 -43.084999084472656,0 C-43.084999084472656,0 -11.236000061035156,-11.236000061035156 -11.236000061035156,-11.236000061035156 C-11.236000061035156,-11.236000061035156 0,-43.084999084472656 0,-43.084999084472656z"></path>
            </g>
        </g>
        <g
            transform="matrix(0.00000271902217718889,0,0,0.00000271902217718889,643.1420288085938,222.92999267578125)"
            opacity="1" style="display: block;">
            <g opacity="1" transform="matrix(1,0,0,1,0,0)">
                <path fill="rgb(101,131,254)" fill-opacity="1"
                    d=" M0,-43.084999084472656 C0,-43.084999084472656 11.236000061035156,-11.236000061035156 11.236000061035156,-11.236000061035156 C11.236000061035156,-11.236000061035156 43.084999084472656,0 43.084999084472656,0 C43.084999084472656,0 11.236000061035156,11.236000061035156 11.236000061035156,11.236000061035156 C11.236000061035156,11.236000061035156 0,43.084999084472656 0,43.084999084472656 C0,43.084999084472656 -11.236000061035156,11.236000061035156 -11.236000061035156,11.236000061035156 C-11.236000061035156,11.236000061035156 -43.084999084472656,0 -43.084999084472656,0 C-43.084999084472656,0 -11.236000061035156,-11.236000061035156 -11.236000061035156,-11.236000061035156 C-11.236000061035156,-11.236000061035156 0,-43.084999084472656 0,-43.084999084472656z"></path>
                <path stroke-linecap="round" stroke-linejoin="round" fill-opacity="0"
                    stroke="rgb(101,131,254)" stroke-opacity="1" stroke-width="15"
                    d=" M0,-43.084999084472656 C0,-43.084999084472656 11.236000061035156,-11.236000061035156 11.236000061035156,-11.236000061035156 C11.236000061035156,-11.236000061035156 43.084999084472656,0 43.084999084472656,0 C43.084999084472656,0 11.236000061035156,11.236000061035156 11.236000061035156,11.236000061035156 C11.236000061035156,11.236000061035156 0,43.084999084472656 0,43.084999084472656 C0,43.084999084472656 -11.236000061035156,11.236000061035156 -11.236000061035156,11.236000061035156 C-11.236000061035156,11.236000061035156 -43.084999084472656,0 -43.084999084472656,0 C-43.084999084472656,0 -11.236000061035156,-11.236000061035156 -11.236000061035156,-11.236000061035156 C-11.236000061035156,-11.236000061035156 0,-43.084999084472656 0,-43.084999084472656z"></path>
            </g>
        </g>
        <g
            transform="matrix(0.13087408244609833,-0.09571520984172821,0.09571520984172821,0.13087408244609833,558.260986328125,172.7740020751953)"
            opacity="1" style="display: block;">
            <g opacity="1" transform="matrix(1,0,0,1,0,0)">
                <path fill="rgb(255,126,184)" fill-opacity="1"
                    d=" M5.39300012588501,-5.269999980926514 C5.39300012588501,-5.269999980926514 19.05900001525879,-5.269999980926514 19.05900001525879,-5.269999980926514 C22.03700065612793,-5.269999980926514 24.45199966430664,-2.8550000190734863 24.45199966430664,0.12300000339746475 C24.45199966430664,0.12300000339746475 24.45199966430664,0.12300000339746475 24.45199966430664,0.12300000339746475 C24.45199966430664,3.1010000705718994 22.03700065612793,5.515999794006348 19.05900001525879,5.515999794006348 C19.05900001525879,5.515999794006348 5.39300012588501,5.515999794006348 5.39300012588501,5.515999794006348 C5.39300012588501,5.515999794006348 5.39300012588501,19.083999633789062 5.39300012588501,19.083999633789062 C5.39300012588501,22.062000274658203 2.9779999256134033,24.476999282836914 0,24.476999282836914 C0,24.476999282836914 0,24.476999282836914 0,24.476999282836914 C-2.9779999256134033,24.476999282836914 -5.39300012588501,22.062000274658203 -5.39300012588501,19.083999633789062 C-5.39300012588501,19.083999633789062 -5.39300012588501,5.515999794006348 -5.39300012588501,5.515999794006348 C-5.39300012588501,5.515999794006348 -19.05900001525879,5.515999794006348 -19.05900001525879,5.515999794006348 C-22.03700065612793,5.515999794006348 -24.45199966430664,3.1010000705718994 -24.45199966430664,0.12300000339746475 C-24.45199966430664,0.12300000339746475 -24.45199966430664,0.12300000339746475 -24.45199966430664,0.12300000339746475 C-24.45199966430664,-2.8550000190734863 -22.03700065612793,-5.269999980926514 -19.05900001525879,-5.269999980926514 C-19.05900001525879,-5.269999980926514 -5.39300012588501,-5.269999980926514 -5.39300012588501,-5.269999980926514 C-5.39300012588501,-5.269999980926514 -5.39300012588501,-19.083999633789062 -5.39300012588501,-19.083999633789062 C-5.39300012588501,-22.062000274658203 -2.9779999256134033,-24.476999282836914 0,-24.476999282836914 C0,-24.476999282836914 0,-24.476999282836914 0,-24.476999282836914 C2.9779999256134033,-24.476999282836914 5.39300012588501,-22.062000274658203 5.39300012588501,-19.083999633789062 C5.39300012588501,-19.083999633789062 5.39300012588501,-5.269999980926514 5.39300012588501,-5.269999980926514z"></path>
                <path stroke-linecap="butt" stroke-linejoin="miter" fill-opacity="0"
                    stroke-miterlimit="10" stroke="rgb(255,126,184)" stroke-opacity="1"
                    stroke-width="5"
                    d=" M5.39300012588501,-5.269999980926514 C5.39300012588501,-5.269999980926514 19.05900001525879,-5.269999980926514 19.05900001525879,-5.269999980926514 C22.03700065612793,-5.269999980926514 24.45199966430664,-2.8550000190734863 24.45199966430664,0.12300000339746475 C24.45199966430664,0.12300000339746475 24.45199966430664,0.12300000339746475 24.45199966430664,0.12300000339746475 C24.45199966430664,3.1010000705718994 22.03700065612793,5.515999794006348 19.05900001525879,5.515999794006348 C19.05900001525879,5.515999794006348 5.39300012588501,5.515999794006348 5.39300012588501,5.515999794006348 C5.39300012588501,5.515999794006348 5.39300012588501,19.083999633789062 5.39300012588501,19.083999633789062 C5.39300012588501,22.062000274658203 2.9779999256134033,24.476999282836914 0,24.476999282836914 C0,24.476999282836914 0,24.476999282836914 0,24.476999282836914 C-2.9779999256134033,24.476999282836914 -5.39300012588501,22.062000274658203 -5.39300012588501,19.083999633789062 C-5.39300012588501,19.083999633789062 -5.39300012588501,5.515999794006348 -5.39300012588501,5.515999794006348 C-5.39300012588501,5.515999794006348 -19.05900001525879,5.515999794006348 -19.05900001525879,5.515999794006348 C-22.03700065612793,5.515999794006348 -24.45199966430664,3.1010000705718994 -24.45199966430664,0.12300000339746475 C-24.45199966430664,0.12300000339746475 -24.45199966430664,0.12300000339746475 -24.45199966430664,0.12300000339746475 C-24.45199966430664,-2.8550000190734863 -22.03700065612793,-5.269999980926514 -19.05900001525879,-5.269999980926514 C-19.05900001525879,-5.269999980926514 -5.39300012588501,-5.269999980926514 -5.39300012588501,-5.269999980926514 C-5.39300012588501,-5.269999980926514 -5.39300012588501,-19.083999633789062 -5.39300012588501,-19.083999633789062 C-5.39300012588501,-22.062000274658203 -2.9779999256134033,-24.476999282836914 0,-24.476999282836914 C0,-24.476999282836914 0,-24.476999282836914 0,-24.476999282836914 C2.9779999256134033,-24.476999282836914 5.39300012588501,-22.062000274658203 5.39300012588501,-19.083999633789062 C5.39300012588501,-19.083999633789062 5.39300012588501,-5.269999980926514 5.39300012588501,-5.269999980926514z"></path>
            </g>
        </g>
    </g>
</svg>