<?xml version="1.0" standalone="no"?>
<!DOCTYPE svg PUBLIC "-//W3C//DTD SVG 20010904//EN"
 "http://www.w3.org/TR/2001/REC-SVG-20010904/DTD/svg10.dtd">
<svg version="1.0" xmlns="http://www.w3.org/2000/svg"
 width="903.000000pt" height="903.000000pt" viewBox="0 0 903.000000 903.000000"
 preserveAspectRatio="xMidYMid meet">
<metadata>
Created by potrace 1.14, written by Peter Selinger 2001-2017
</metadata>
<g transform="translate(0.000000,903.000000) scale(0.100000,-0.100000)"
fill="#000000" stroke="none">
<path d="M4258 9025 c-2 -2 -43 -6 -92 -9 -48 -3 -111 -9 -140 -12 -28 -3 -64
-7 -81 -9 -16 -2 -75 -11 -130 -19 -150 -25 -182 -31 -300 -57 -49 -12 -97
-22 -105 -24 -41 -8 -247 -70 -340 -102 -545 -185 -1013 -450 -1475 -834 -108
-90 -387 -364 -475 -468 -30 -35 -60 -69 -65 -75 -88 -96 -343 -453 -409 -572
-9 -16 -21 -36 -26 -44 -119 -185 -349 -697 -405 -905 -10 -35 -10 -35 -18
-55 -23 -56 -115 -443 -131 -552 -3 -21 -8 -53 -11 -70 -19 -116 -34 -242 -42
-344 -15 -198 -8 -726 12 -834 2 -14 6 -47 9 -75 10 -93 20 -166 31 -207 5
-21 2 -30 -14 -40 -12 -7 -21 -17 -21 -22 0 -4 7 -3 15 4 9 7 18 10 21 7 5 -5
26 -96 50 -216 3 -14 7 -28 9 -31 2 -4 7 -20 9 -36 8 -42 13 -62 31 -124 9
-30 20 -68 24 -85 23 -89 125 -367 175 -480 8 -16 24 -52 36 -80 46 -103 143
-292 208 -402 83 -142 78 -133 137 -222 28 -41 55 -81 60 -90 6 -9 52 -72 104
-141 152 -202 220 -280 421 -480 138 -138 217 -211 327 -300 10 -8 32 -26 49
-40 17 -14 43 -34 58 -45 16 -11 33 -25 40 -30 21 -19 181 -131 241 -169 33
-21 71 -46 85 -55 62 -43 256 -150 404 -222 308 -152 718 -296 1011 -355 51
-10 192 -37 210 -40 11 -1 65 -10 120 -18 98 -15 136 -19 285 -33 162 -15 635
-9 835 11 53 6 237 32 290 41 127 23 194 37 225 45 19 5 46 11 60 14 175 35
706 216 758 258 6 6 12 8 12 4 0 -9 354 171 464 236 99 59 296 186 306 197 3
4 28 22 55 41 28 19 55 38 60 42 233 184 300 242 480 423 152 152 180 181 270
290 28 33 52 62 55 65 18 16 167 222 230 315 40 61 82 122 92 137 10 15 18 31
18 36 0 4 5 13 12 20 38 38 262 487 331 662 47 120 116 317 122 350 2 11 6 24
9 28 5 8 62 222 70 266 3 11 10 44 16 71 5 28 13 61 15 75 14 72 14 71 38 60
l22 -11 -22 19 c-21 19 -22 21 -8 103 16 102 26 174 30 214 16 181 20 266 20
485 -1 376 -17 554 -82 880 -13 69 -26 136 -29 150 -3 14 -12 48 -20 75 -8 28
-14 52 -14 55 -1 9 -21 85 -36 130 -90 281 -85 266 -169 470 -95 228 -332 673
-367 688 -5 2 -8 8 -8 13 0 21 -177 265 -304 419 -151 184 -396 430 -575 580
-29 25 -59 50 -65 55 -6 6 -60 47 -121 93 -60 45 -114 85 -120 90 -20 15 -211
140 -258 168 -178 107 -503 269 -678 338 -181 71 -407 143 -569 181 -8 2 -51
13 -95 23 -44 11 -98 23 -120 27 -22 4 -49 9 -60 11 -55 10 -215 34 -255 39
-25 3 -67 8 -95 11 -27 4 -70 8 -95 11 -54 5 -627 12 -632 8z"/>
</g>
</svg>
